<svg xmlns="http://www.w3.org/2000/svg" width="1024" height="1024" xmlns:v="https://vecta.io/nano"><path d="M645.864 222c30.004 0 52.657 7.551 67.96 22.653s22.953 37.355 22.953 66.759v129.018c0 3 1.05 5.001 3.15 6.001s4.651.3 7.651-2.1c5.601-4.201 11.502-8.001 17.702-11.402s12.952-6.151 20.253-8.251 15.252-3.15 23.853-3.15c17.002 0 32.355 4.051 46.056 12.152s24.553 19.103 32.555 33.005S900 496.038 900 513.041c0 17.202-4.001 32.755-12.002 46.657s-18.853 24.903-32.555 33.005-29.054 12.152-46.056 12.152c-8.601 0-16.552-1.05-23.853-3.15s-14.052-4.851-20.253-8.251-12.102-7.201-17.702-11.402c-3-2.4-5.551-3.1-7.651-2.1s-3.15 3-3.15 6.001v126.618c0 29.404-7.651 51.657-22.953 66.759s-37.955 22.653-67.96 22.653H274.713c-29.604 0-51.957-7.651-67.059-22.953S185 741.173 185 711.368V583.551c0-9.801 3.3-17.652 9.901-23.553s14.402-8.851 23.403-8.851c5.001 0 10.051 1.05 15.152 3.15s9.951 5.351 14.552 9.751 9.801 8.951 15.602 13.652 12.802 8.651 21.003 11.852 18.103 4.801 29.704 4.801c15.002 0 28.654-3.651 40.956-10.952s22.053-17.152 29.254-29.554 10.802-26.204 10.802-41.406c0-15.402-3.601-29.304-10.802-41.706s-16.952-22.203-29.254-29.404-25.954-10.802-40.956-10.802c-11.602 0-21.503 1.6-29.704 4.801s-15.202 7.101-21.003 11.702-11.002 9.101-15.602 13.502c-4.601 4.601-9.451 7.951-14.552 10.051s-10.151 3.15-15.152 3.15c-9.001 0-16.802-2.95-23.403-8.851S185 451.132 185 441.331V312.613c0-29.804 7.551-52.357 22.653-67.659S245.108 222 274.713 222h371.152zM586.18 370.024c-2.001-1.065-4.258-1.299-6.771-.703s-4.833 2.257-6.962 4.982L456.322 519.3c-2.214 2.896-3.322 5.621-3.322 8.176 0 2.47.852 4.535 2.555 6.196s3.918 2.491 6.643 2.491h72.179l-38.07 103.478c-1.278 3.322-1.512 6.175-.703 8.559s2.214 4.109 4.216 5.174 4.258 1.278 6.771.639 4.833-2.278 6.962-4.918L629.678 503.97c2.214-2.811 3.322-5.536 3.322-8.176 0-2.47-.852-4.535-2.555-6.196s-3.918-2.491-6.643-2.491h-72.179l38.07-103.478c1.278-3.236 1.512-6.047.703-8.432s-2.214-4.109-4.216-5.174z" fill-rule="evenodd"/></svg>